<svg width="33" height="33" viewBox="0 0 33 33" fill="none" xmlns="http://www.w3.org/2000/svg">
<path d="M13.0819 28.4804V24.4034C13.0819 23.3627 13.9318 22.519 14.9801 22.519H18.8123C19.3158 22.519 19.7986 22.7176 20.1546 23.071C20.5106 23.4244 20.7106 23.9037 20.7106 24.4034V28.4804C20.7074 28.9131 20.8783 29.3291 21.1854 29.6362C21.4924 29.9433 21.9103 30.1159 22.3461 30.1159H24.9606C26.1817 30.1191 27.3539 29.6397 28.2184 28.7837C29.083 27.9276 29.5689 26.7653 29.5689 25.553V13.9384C29.5689 12.9592 29.1316 12.0304 28.375 11.4022L19.4809 4.35044C17.9337 3.11403 15.717 3.15395 14.2161 4.44525L5.52488 11.4022C4.73252 12.0119 4.25894 12.9435 4.23553 13.9384V25.5412C4.23553 28.0678 6.29871 30.1159 8.84377 30.1159H11.3986C12.3038 30.1159 13.0395 29.3909 13.0461 28.4923L13.0819 28.4804Z" fill="#ABABAB"/>
</svg>
