<svg id="Layer_1" data-name="Layer 1" xmlns="http://www.w3.org/2000/svg" xmlns:xlink="http://www.w3.org/1999/xlink" viewBox="0 0 500 149.2"><defs><style>.cls-1{fill:none;}.cls-2{fill:#1e4485;}.cls-3{fill:#0094c5;}.cls-4{fill:#0077b4;}.cls-5{clip-path:url(#clip-path);}.cls-6{fill:#fff;}</style><clipPath id="clip-path"><polygon class="cls-1" points="85.99 15.38 69.92 47.51 93.31 88.12 132.85 15.43 85.99 15.38"/></clipPath></defs><title>VS-logo Horizontal</title><polygon class="cls-2" points="93.31 88.12 46.45 88.07 69.92 47.51 93.31 88.12"/><polygon class="cls-3" points="93.31 88.12 69.84 128.68 46.45 88.07 93.31 88.12"/><polygon class="cls-4" points="85.99 15.38 69.92 47.51 93.31 88.12 132.85 15.43 85.99 15.38"/><g class="cls-5"><rect class="cls-6" x="74.6" y="-5.58" width="0.87" height="92.72" transform="translate(27.93 -30.46) rotate(28)"/><rect class="cls-6" x="76.94" y="-5.04" width="0.87" height="92.72" transform="translate(28.46 -31.49) rotate(28)"/><rect class="cls-6" x="79.27" y="-4.51" width="0.87" height="92.72" transform="translate(28.98 -32.52) rotate(28)"/><rect class="cls-6" x="81.6" y="-3.97" width="0.87" height="92.72" transform="translate(29.51 -33.56) rotate(28)"/><rect class="cls-6" x="83.94" y="-3.43" width="0.87" height="92.72" transform="translate(30.04 -34.59) rotate(28)"/><rect class="cls-6" x="86.27" y="-2.89" width="0.87" height="92.72" transform="translate(30.56 -35.62) rotate(28)"/><rect class="cls-6" x="88.61" y="-2.35" width="0.87" height="92.72" transform="translate(31.09 -36.66) rotate(28)"/><rect class="cls-6" x="90.94" y="-1.81" width="0.87" height="92.72" transform="translate(31.61 -37.69) rotate(28)"/><rect class="cls-6" x="93.28" y="-1.27" width="0.87" height="92.72" transform="translate(32.14 -38.72) rotate(28)"/><rect class="cls-6" x="95.61" y="-0.73" width="0.87" height="92.72" transform="translate(32.67 -39.75) rotate(28)"/><rect class="cls-6" x="97.94" y="-0.2" width="0.87" height="92.72" transform="translate(33.19 -40.79) rotate(28)"/><rect class="cls-6" x="100.28" y="0.34" width="0.87" height="92.72" transform="translate(33.72 -41.82) rotate(28)"/><rect class="cls-6" x="102.61" y="0.88" width="0.87" height="92.72" transform="translate(34.25 -42.85) rotate(28)"/><rect class="cls-6" x="104.95" y="1.42" width="0.87" height="92.72" transform="translate(34.77 -43.89) rotate(28)"/><rect class="cls-6" x="107.28" y="1.96" width="0.87" height="92.72" transform="translate(35.3 -44.92) rotate(28)"/><rect class="cls-6" x="109.62" y="2.5" width="0.87" height="92.72" transform="translate(35.82 -45.95) rotate(28)"/><rect class="cls-6" x="111.95" y="3.04" width="0.87" height="92.72" transform="translate(36.35 -46.98) rotate(28)"/></g><polygon class="cls-4" points="62.49 35.55 62.21 35.1 15.89 35.05 46.45 88.07 69.92 47.51 62.49 35.55"/><polygon class="cls-2" points="91.25 4.33 85.99 15.38 132.85 15.43 132.74 137.09 11.07 136.98 11.18 15.32 53.55 15.36 48.69 4.29 0.13 4.25 0 148.03 143.78 148.16 143.92 4.38 91.25 4.33"/><path class="cls-3" d="M248.49,4.05,220.14,77.82H196.63L168.28,4.05h23.51l16.65,43.17L225,4.05Z"/><path class="cls-3" d="M255.48,4.05h20.83V77.82H255.48Z"/><path class="cls-3" d="M332.37,77.82,316.79,55.59h-6.44V77.82H289.52V4.05h35.33c16.54,0,28.24,10.63,28.24,25.77a24.5,24.5,0,0,1-14.6,23l17.61,25Zm-22-41.13h12.78c4.94,0,8.49-2.9,8.49-6.87S328.07,23,323.13,23H310.35Z"/><path class="cls-3" d="M411,67.94H385.31l-3.76,9.88H358L386.38,4.05H409.9l28.35,73.77H414.73Zm-5.91-15.35L398.2,34.65l-7,17.94Z"/><path class="cls-3" d="M500,59.25V77.82H444.8V4.05h20.84v55.2Z"/><path class="cls-2" d="M168.28,139.93l4.89-6c4.9,4.66,10.68,7.71,18.14,7.71,7.63,0,11.56-4,11.56-8.43,0-5.22-4.58-7.23-13.81-9.31-11.23-2.65-18.7-6-18.7-16,0-9.23,8-16.21,19.11-16.21a29.22,29.22,0,0,1,20.14,7.79l-4.65,6.1c-4.66-4.26-10.2-6.75-15.82-6.75-6.18,0-10.51,3.94-10.51,8.35,0,5.14,4.73,6.9,13.81,9.07,11,2.57,18.62,6.26,18.62,16.14,0,9.31-7.06,16.37-20.07,16.37A31.8,31.8,0,0,1,168.28,139.93Z"/><path class="cls-2" d="M270.13,137.36l5.86,5.06-4.66,5.46-6.18-5.38a28.25,28.25,0,0,1-17.65,6.34c-15.5,0-28.66-13.08-28.66-28.57S232,91.77,247.5,91.77A28.81,28.81,0,0,1,276,120.27,28,28,0,0,1,270.13,137.36Zm-10.92,0-7.86-6.82,4.65-5.46,8.11,7.06a21.75,21.75,0,0,0,3.61-11.87c0-11.4-9.23-21-20.22-21s-20.31,9.64-20.31,21,9.31,21.11,20.31,21.11A19.48,19.48,0,0,0,259.21,137.36Z"/><path class="cls-2" d="M286.34,124.68V92.73h8.11v31.79c0,9.87,6.42,16.94,15.57,16.94s15.49-7.07,15.49-16.94V92.73h8.19v32c0,14.13-9.87,24.16-23.68,24.16S286.34,138.81,286.34,124.68Z"/><path class="cls-2" d="M384.66,136.64H355.93l-4.82,11.24h-9L365.8,92.73h9l23.68,55.15h-9Zm-3.13-7.3-11.24-26.17-11.23,26.17Z"/><path class="cls-2" d="M436.11,127.89l14.05,20h-9.31l-13.49-19.19H414.68v19.19h-8.11V92.73h23.2c11.64,0,20.47,7.47,20.47,18C450.24,119.22,444.46,125.72,436.11,127.89Zm-21.43-6.74h14c7.94,0,13.32-3.94,13.32-10.44s-5.38-10.43-13.32-10.43h-14Z"/><path class="cls-2" d="M467.65,100.28V116h29.22v7.55H467.65v16.77H500v7.55H459.47V92.73H500v7.55Z"/></svg>