<svg width="30" height="25" viewBox="0 0 30 25" fill="none" xmlns="http://www.w3.org/2000/svg">
<g clip-path="url(#clip0_1_349)">
<path fill-rule="evenodd" clip-rule="evenodd" d="M19.8128 20.3652H24.3986C25.1797 20.3652 25.8128 19.7321 25.8128 18.951C25.8128 18.5759 25.6638 18.2162 25.3986 17.951L24.3986 16.951C24.0235 16.5759 23.8128 16.0672 23.8128 15.5368L23.8128 12.3359C23.8128 7.93382 20.2442 4.36523 15.8422 4.36523C11.4307 4.36523 7.85827 7.94842 7.87151 12.3598L7.88097 15.5128C7.88261 16.0574 7.66212 16.5791 7.27043 16.9574L6.24147 17.9512C5.96754 18.2158 5.81284 18.5803 5.81284 18.9612C5.81284 19.7366 6.44146 20.3652 7.21691 20.3652H11.8128C11.8128 22.5744 13.6037 24.3652 15.8128 24.3652C18.022 24.3652 19.8128 22.5744 19.8128 20.3652ZM23.338 18.0117L24.1915 18.8652H7.4543L8.31251 18.0363C8.99797 17.3743 9.38383 16.4613 9.38097 15.5083L9.3715 12.3553C9.36075 8.77411 12.2609 5.86523 15.8422 5.86523C19.4158 5.86523 22.3128 8.76225 22.3128 12.3359L22.3128 15.5368C22.3128 16.4651 22.6816 17.3553 23.338 18.0117ZM18.3128 20.3652H13.3128C13.3128 21.7459 14.4321 22.8652 15.8128 22.8652C17.1935 22.8652 18.3128 21.7459 18.3128 20.3652Z" fill="white"/>
</g>
<path d="M5.31284 7.97725C7.1392 7.97725 8.81284 6.6281 8.81284 4.73844C8.81284 2.84878 7.1392 1.49963 5.31284 1.49963C3.48647 1.49963 1.81284 2.84878 1.81284 4.73844C1.81284 6.6281 3.48647 7.97725 5.31284 7.97725Z" fill="#FF6E91" stroke="white" stroke-width="2"/>
<defs>
<clipPath id="clip0_1_349">
<rect width="25.313" height="22.5672" fill="white" transform="translate(3.81284 2.36523)"/>
</clipPath>
</defs>
</svg>
