<svg width="24" height="25" viewBox="0 0 24 25" fill="none" xmlns="http://www.w3.org/2000/svg">
<path fill-rule="evenodd" clip-rule="evenodd" d="M11.7388 2.28809C17.1088 2.28809 21.4768 6.65609 21.4768 12.0261C21.4768 14.5596 20.5045 16.8704 18.9135 18.6046L22.0442 21.7288C22.3372 22.0218 22.3382 22.4958 22.0452 22.7888C21.8992 22.9368 21.7062 23.0098 21.5142 23.0098C21.3232 23.0098 21.1312 22.9368 20.9842 22.7908L17.8157 19.6311C16.1489 20.9659 14.0355 21.7651 11.7388 21.7651C6.3688 21.7651 1.9998 17.3961 1.9998 12.0261C1.9998 6.65609 6.3688 2.28809 11.7388 2.28809ZM11.7388 3.78809C7.1958 3.78809 3.4998 7.48309 3.4998 12.0261C3.4998 16.5691 7.1958 20.2651 11.7388 20.2651C16.2808 20.2651 19.9768 16.5691 19.9768 12.0261C19.9768 7.48309 16.2808 3.78809 11.7388 3.78809Z" fill="#0D0D0D"/>
</svg>
